<?xml version="1.0" encoding="UTF-8"?>
<svg width="24px" height="24px" viewBox="0 0 24 24" version="1.1" xmlns="http://www.w3.org/2000/svg" xmlns:xlink="http://www.w3.org/1999/xlink">
    <title>ability</title>
    <g id="ability" stroke="none" fill="none" fill-rule="evenodd">
        <path d="M10.2858,2.43444 C10.4667,2.16303 10.7714,2 11.0976,2 L12.9024,2 C13.2286,2 13.5333,2.16303 13.7142,2.43444 L15.145,4.58067 L17.4209,4.05547 C17.7486,3.97983 18.0922,4.07838 18.3301,4.31624 L19.6838,5.6699 C19.9216,5.90775 20.0202,6.25137 19.9445,6.57913 L19.4193,8.85498 L21.5656,10.2858 C21.837,10.4667 22,10.7714 22,11.0976 L22,12.9024 C22,13.2286 21.837,13.5333 21.5656,13.7142 L19.4193,15.145 L19.9445,17.4209 C20.0202,17.7486 19.9216,18.0922 19.6838,18.3301 L18.3301,19.6838 C18.0922,19.9216 17.7486,20.0202 17.4209,19.9445 L15.145,19.4193 L13.7142,21.5656 C13.5333,21.837 13.2286,22 12.9024,22 L11.0976,22 C10.7714,22 10.4667,21.837 10.2858,21.5656 L8.85498,19.4193 L6.57913,19.9445 C6.25137,20.0202 5.90775,19.9216 5.6699,19.6838 L4.31624,18.3301 C4.07838,18.0922 3.97983,17.7486 4.05547,17.4209 L4.58067,15.145 L2.43444,13.7142 C2.16303,13.5333 2,13.2286 2,12.9024 L2,11.0976 C2,10.7714 2.16303,10.4667 2.43444,10.2858 L4.58067,8.85498 L4.05547,6.57913 C3.97983,6.25136 4.07838,5.90775 4.31624,5.6699 L5.6699,4.31624 C5.90775,4.07838 6.25136,3.97983 6.57913,4.05547 L8.85498,4.58067 L10.2858,2.43444 Z M8.5,12 C8.5,10.067 10.067,8.5 12,8.5 C13.933,8.5 15.5,10.067 15.5,12 C15.5,13.933 13.933,15.5 12,15.5 C10.067,15.5 8.5,13.933 8.5,12 Z" id="形状" fill="#A0AECA"></path>
    </g>
</svg>