<?xml version="1.0" encoding="UTF-8"?>
<svg width="24px" height="24px" viewBox="0 0 24 24" version="1.1" xmlns="http://www.w3.org/2000/svg" xmlns:xlink="http://www.w3.org/1999/xlink">
    <title>图形</title>
    <g id="图形" stroke="none" fill="none" fill-rule="nonzero">
        <path d="M22.0525097,8.42909543 C21.8887196,8.32886119 21.6845873,8.32102643 21.5135962,8.40841148 L13.2005516,12.6562603 C13.016062,12.7505391 12.8999724,12.940252 12.8999724,13.1474352 L12.8999724,21.6140375 C12.8999724,21.8060718 12.9998133,21.9842937 13.1636074,22.0845367 C13.3274015,22.1847797 13.5315444,22.1926115 13.7025372,22.1052124 L22.0155819,17.8573635 C22.2000715,17.7630848 22.3161611,17.5733719 22.3161611,17.3661886 L22.3161611,8.89955873 C22.3161611,8.70753817 22.2162871,8.52933935 22.0525097,8.42909543 L22.0525097,8.42909543 Z M10.8044126,12.6007722 L2.49136791,8.35383342 C2.32037238,8.26649233 2.11626143,8.27435676 1.95249342,8.37459636 C1.78872541,8.47483595 1.68885825,8.65302559 1.68885825,8.84503584 L1.68885825,17.3661886 C1.68885825,17.5733719 1.80494781,17.7630848 1.98943739,17.8573635 L10.3024545,22.1052124 C10.4734443,22.1926162 10.6775907,22.1847705 10.8413679,22.0845008 C11.0051534,21.9842646 11.1050193,21.8060609 11.1050193,21.6140375 L11.1050193,13.0919746 C11.1050193,12.8847754 10.9889217,12.6950478 10.8044126,12.6007722 Z M20.8153613,6.70085494 C20.8153613,6.49366564 20.6992548,6.30395121 20.5147545,6.20968008 L12.1753723,1.94911748 C12.0177612,1.86859107 11.8310805,1.86859107 11.6734694,1.94911748 L3.38769994,6.18243244 C3.20319871,6.2767062 3.08709776,6.4664244 3.08709776,6.67361573 C3.08709776,6.88080705 3.203221,7.07051873 3.38772752,7.16478213 L11.7271098,11.4253447 C11.8847143,11.5058983 12.0714081,11.5058983 12.2290127,11.4253447 L20.5147545,7.19202977 C20.6992548,7.09775865 20.8153613,6.90804422 20.8153613,6.70085494 L20.8153613,6.70085494 Z" id="形状" fill="#A0AECA"></path>
    </g>
</svg>