<?xml version="1.0" encoding="UTF-8"?>
<svg width="24px" height="24px" viewBox="0 0 24 24" version="1.1" xmlns="http://www.w3.org/2000/svg" xmlns:xlink="http://www.w3.org/1999/xlink">
    <title>email</title>
    <g id="email" stroke="none" fill="none" fill-rule="evenodd" stroke-width="1">
        <g id="编组" fill="#A0AECA">
            <path d="M2.03057,6.80497 C2.04526,6.62516 2.06803,6.44579 2.10662,6.26806 L10.4642,11.2488 C11.4104,11.8127 12.5896,11.8127 13.5358,11.2488 L21.8934,6.26806 C21.932,6.44579 21.9547,6.62516 21.9694,6.80497 C21.9999996,7.17954 21.9999996,7.6343 21.9999996,8.16144 L21.9999996,14 C21.9999996,12.3431 20.6569,11 18.9999996,11 C17.3431,11 15.9999996,12.3431 15.9999996,14 C14.3432,14 12.9999996,15.3431 12.9999996,17 C12.9999996,18.656 14.3418,19.9987 15.9976,20 L6.16136,20 C5.63428,20 5.17951,20 4.80498,19.9694 C4.40963,19.9371 4.01641,19.8658 3.63803,19.673 C3.07355,19.3854 2.6146,18.9265 2.32698,18.362 C2.13419,17.9836 2.06287,17.5904 2.03057,17.195 C1.99999963,16.8205 1.99999963,16.3657 1.99999963,15.8386 L1.99999963,8.16142 C1.99999963,7.63432 1.99999963,7.17952 2.03057,6.80497 Z" id="路径"></path>
            <path d="M20.362,4.32698 C20.5139,4.40441 20.6583,4.49426 20.7936,4.59523 L12.5119,9.53079 C12.1965,9.71876 11.8035,9.71876 11.4881,9.53079 L3.20637,4.59524 C3.34175,4.49426 3.48607,4.40441 3.63803,4.32698 C4.01641,4.13419 4.40963,4.06287 4.80498,4.03057 C5.17953,3.999999 5.6343,3.999999 6.1614,3.999999 L17.8386,3.999999 C18.3657,3.999999 18.8205,3.999999 19.195,4.03057 C19.5904,4.06287 19.9836,4.13419 20.362,4.32698 Z" id="路径"></path>
            <path d="M19,13 C19.5523,13 20,13.4477 20,14 L20,16 L22,16 C22.5523,16 23,16.4477 23,17 C23,17.5523 22.5523,18 22,18 L20,18 L20,20 C20,20.5523 19.5523,21 19,21 C18.4477,21 18,20.5523 18,20 L18,18 L16,18 C15.4477,18 15,17.5523 15,17 C15,16.4477 15.4477,16 16,16 L18,16 L18,14 C18,13.4477 18.4477,13 19,13 Z" id="路径"></path>
        </g>
    </g>
</svg>