<?xml version="1.0" encoding="UTF-8"?>
<svg width="24px" height="24px" viewBox="0 0 24 24" version="1.1" xmlns="http://www.w3.org/2000/svg" xmlns:xlink="http://www.w3.org/1999/xlink">
    <title>group</title>
    <g id="group" stroke="none" fill="none" fill-rule="evenodd" stroke-width="1">
        <g id="编组" transform="translate(0.9998, 4)" fill="#A0AECA">
            <path d="M2.86962393,3.55555556 C2.86962393,1.59187556 4.58265564,0 6.69578947,0 C8.80892331,0 10.521955,1.59187556 10.521955,3.55555556 C10.521955,5.51923556 8.80892331,7.11111111 6.69578947,7.11111111 C4.58265564,7.11111111 2.86962393,5.51923556 2.86962393,3.55555556 Z" id="路径"></path>
            <path d="M11.4784964,3.55555556 C11.4784964,1.59187556 13.1915664,0 15.3046619,0 C17.4177575,0 19.1308275,1.59187556 19.1308275,3.55555556 C19.1308275,5.51923556 17.4177575,7.11111111 15.3046619,7.11111111 C13.1915664,7.11111111 11.4784964,5.51923556 11.4784964,3.55555556 Z" id="路径"></path>
            <path d="M6.69578947,8 C10.0156577,8 13.0471286,10.5393778 13.3891878,15.0486222 C13.4078404,15.2945778 13.3157254,15.5367111 13.1347478,15.7171556 C12.9538658,15.8975111 12.7003824,16 12.4350378,16 L0.956541162,16 C0.691167885,16 0.437720767,15.8975111 0.256790007,15.7171556 C0.0758592476,15.5367111 -0.0162901232,15.2945778 0.00237008609,15.0486222 C0.344420676,10.5393778 3.37594998,8 6.69578947,8 Z" id="路径"></path>
            <path d="M21.043432,16 L15.1400412,16 C15.2700351,15.6585778 15.3250363,15.2925333 15.2971053,14.9235556 C15.0991012,12.3138667 14.0865065,10.1424 12.558336,8.62142222 C13.4110926,8.21173333 14.3456335,8 15.3041837,8 C18.6240519,8 21.6555228,10.5393778 21.997582,15.0486222 C22.0366089,15.5628444 21.598226,16 21.043432,16 Z" id="路径"></path>
        </g>
    </g>
</svg>