<?xml version="1.0" encoding="UTF-8"?>
<svg width="24px" height="24px" viewBox="0 0 24 24" version="1.1" xmlns="http://www.w3.org/2000/svg" xmlns:xlink="http://www.w3.org/1999/xlink">
    <title>location</title>
    <g id="location" stroke="none" fill="none" fill-rule="evenodd">
        <path d="M12.5914,21.8064 L12.5926,21.8055 L12.5944,21.8042 L12.6,21.8001 L12.6185,21.7863 C12.6341,21.7746 12.6562,21.758 12.6844,21.7365 C12.7406,21.6937 12.8211,21.6316 12.9223,21.5514 C13.1245,21.3909 13.4102,21.1574 13.7514,20.8594 C14.4326,20.2647 15.3426,19.407 16.2553,18.3551 C18.0477,16.2895 20,13.3052 20,10 C20,5.58172 16.4183,2 12,2 C7.58172,2 4,5.58172 4,10 C4,13.3052 5.95225,16.2895 7.74471,18.3551 C8.65744,19.407 9.5674,20.2647 10.2486,20.8594 C10.5898,21.1574 10.8755,21.3909 11.0777,21.5514 C11.1789,21.6316 11.2594,21.6937 11.3156,21.7365 C11.3438,21.758 11.3659,21.7746 11.3815,21.7863 L11.4,21.8001 L11.4056,21.8042 L11.4081,21.806 C11.7601,22.0642 12.2394,22.0645 12.5914,21.8064 Z M11.9978,12.5 C13.3785,12.5 14.4978,11.3807 14.4978,10 C14.4978,8.61929 13.3785,7.5 11.9978,7.5 C10.6171,7.5 9.4978,8.61929 9.4978,10 C9.4978,11.3807 10.6171,12.5 11.9978,12.5 Z" id="形状" fill="#A0AECA"></path>
    </g>
</svg>